<svg width="17" height="18" viewBox="0 0 17 18" fill="none" xmlns="http://www.w3.org/2000/svg">
<path d="M16.8722 7.25164V11.183C16.8722 11.4672 16.6511 11.6882 16.367 11.6882H11.5514C11.2672 11.6882 11.0462 11.9093 11.0462 12.1935V17.009C11.0462 17.2932 10.8252 17.5142 10.541 17.5142H6.6096C6.3254 17.5142 6.10436 17.2932 6.10436 17.009V12.1935C6.10436 11.9093 5.88332 11.6882 5.59913 11.6882H0.799395C0.5152 11.6882 0.294159 11.4672 0.294159 11.183V7.25164C0.294159 6.96744 0.5152 6.7464 0.799395 6.7464H5.61492C5.89911 6.7464 6.12015 6.52536 6.12015 6.24117V1.42564C6.12015 1.14145 6.34119 0.92041 6.62539 0.92041H10.5567C10.8409 0.92041 11.062 1.14145 11.062 1.42564V6.24117C11.062 6.52536 11.283 6.7464 11.5672 6.7464H16.367C16.6511 6.7464 16.8722 6.96744 16.8722 7.25164Z" fill="url(#paint0_linear_42_7)"/>
<defs>
<linearGradient id="paint0_linear_42_7" x1="6.59014e-07" y1="-1.49997" x2="15" y2="23" gradientUnits="userSpaceOnUse">
<stop stop-color="#B0F4FF"/>
<stop offset="0.368525" stop-color="#80E4FD"/>
<stop offset="1" stop-color="#6CDDFC"/>
</linearGradient>
</defs>
</svg>
